<svg width="1920" height="1200" viewBox="0 0 1920 1200" fill="none" xmlns="http://www.w3.org/2000/svg">
<g clip-path="url(#clip0_105_23)">
<path d="M1920 0H0V1200H1920V0Z" fill="#072214"/>
<path d="M1920 1075.5C1857.6 988.2 1795.2 900.8 1716.6 891.1C1638.1 881.3 1543.4 949.1 1460.5 954.1C1377.6 959.1 1306.6 901.4 1249.5 840.8C1192.3 780.3 1149.1 717 1103 651.5C1056.8 586.1 1007.7 518.7 1000.1 443C992.5 367.3 1026.5 283.5 1007.5 208.3C988.5 133.1 916.5 66.5 844.5 0H1920V1075.5Z" fill="#082C1B"/>
<path d="M1920 941C1865.4 864.6 1810.8 788.2 1742 779.7C1673.3 771.2 1590.5 830.5 1518 834.9C1445.4 839.2 1383.3 788.7 1333.3 735.7C1283.3 682.8 1245.5 627.3 1205.1 570.1C1164.7 512.9 1121.7 453.8 1115.1 387.6C1108.5 321.4 1138.2 248 1121.5 182.2C1104.9 116.4 1041.9 58.2 979 0H1920V941Z" fill="#0E4128"/>
<path d="M1920 806.6C1873.2 741.1 1826.4 675.6 1767.5 668.3C1708.6 661 1637.5 711.8 1575.4 715.6C1513.2 719.4 1459.9 676 1417.1 630.6C1374.2 585.2 1341.9 537.7 1307.2 488.7C1272.6 439.6 1235.8 389 1230.1 332.2C1224.4 275.5 1249.9 212.6 1235.6 156.2C1221.3 99.8 1167.4 49.9 1113.4 0H1920V806.6Z" fill="#125836"/>
<path d="M1920 672.2C1881 617.6 1842 563 1792.9 556.9C1743.8 550.8 1684.6 593.2 1632.8 596.3C1581 599.5 1536.6 563.4 1500.9 525.5C1465.2 487.7 1438.2 448.1 1409.4 407.2C1380.5 366.3 1349.8 324.2 1345.1 276.9C1340.3 229.6 1361.5 177.2 1349.7 130.2C1337.8 83.2 1292.8 41.6 1247.8 0H1920V672.2Z" fill="#187044"/>
<path d="M1920 537.7C1888.8 494.1 1857.6 450.4 1818.3 445.5C1779 440.7 1731.7 474.6 1690.3 477.1C1648.8 479.6 1613.3 450.7 1584.7 420.4C1556.2 390.1 1534.6 358.5 1511.5 325.8C1488.4 293.1 1463.8 259.3 1460.1 221.5C1456.3 183.7 1473.2 141.7 1463.7 104.1C1454.2 66.5 1418.2 33.3 1382.3 0H1920V537.7Z" fill="#268150"/>
<path d="M1920 403.3C1896.6 370.6 1873.2 337.8 1843.7 334.2C1814.3 330.5 1778.8 355.9 1747.7 357.8C1716.6 359.7 1690 338 1668.5 315.3C1647.1 292.6 1630.9 268.9 1613.6 244.3C1596.3 219.8 1577.9 194.5 1575 166.1C1572.2 137.7 1584.9 106.3 1577.8 78.1C1570.7 49.9 1543.7 25 1516.7 0H1920V403.3Z" fill="#2A9D60"/>
<path d="M1920 268.9C1904.4 247 1888.8 225.2 1869.2 222.8C1849.5 220.3 1825.8 237.3 1805.1 238.5C1784.4 239.8 1766.6 225.3 1752.4 210.2C1738.1 195.1 1727.3 179.2 1715.7 162.9C1704.2 146.5 1691.9 129.7 1690 110.7C1688.1 91.8 1696.6 70.9 1691.9 52.1C1687.1 33.3 1669.1 16.6 1651.1 0H1920V268.9Z" fill="#2EB971"/>
<path d="M1920 134.4C1912.2 123.5 1904.4 112.6 1894.6 111.4C1884.8 110.2 1872.9 118.6 1862.6 119.3C1852.2 119.9 1843.3 112.7 1836.2 105.1C1829 97.5 1823.6 89.6 1817.9 81.4C1812.1 73.3 1806 64.8 1805 55.4C1804.1 45.9 1808.3 35.4 1805.9 26C1803.6 16.6 1794.6 8.3 1785.6 0H1920V134.4Z" fill="#30C879"/>
<path d="M0 124.5C67.1 180.6 134.3 236.7 219 240.7C303.6 244.6 405.9 196.5 466.6 231C527.4 265.6 546.7 382.8 602.9 444C659.1 505.2 752.3 510.4 805.3 557.8C858.3 605.2 871.1 694.9 891.1 770.9C911 846.9 938.1 909.3 970.1 978.6C1002 1047.8 1038.7 1123.9 1075.5 1200H0V124.5Z" fill="#082C1B"/>
<path d="M0 259C58.7 308 117.5 357.1 191.6 360.6C265.7 364.1 355.1 321.9 408.3 352.2C461.5 382.4 478.4 484.9 527.6 538.5C576.7 592 658.3 596.6 704.6 638.1C751 679.6 762.2 758 779.7 824.5C797.1 891.1 820.9 945.7 848.8 1006.3C876.7 1066.9 908.9 1133.4 941 1200H0V259Z" fill="#0E4128"/>
<path d="M0 393.4C50.4 435.5 100.7 477.5 164.2 480.5C227.7 483.5 304.4 447.4 350 473.3C395.5 499.2 410 587.1 452.2 633C494.4 678.9 564.2 682.8 604 718.4C643.7 753.9 653.3 821.1 668.3 878.2C683.3 935.2 703.6 982 727.5 1033.9C751.5 1085.9 779 1142.9 806.6 1200H0V393.4Z" fill="#125836"/>
<path d="M0 527.8C42 562.9 83.9 597.9 136.9 600.4C189.8 602.9 253.7 572.8 291.6 594.4C329.6 616 341.7 689.2 376.8 727.5C412 765.7 470.2 769 503.3 798.6C536.4 828.3 544.4 884.3 556.9 931.8C569.4 979.3 586.3 1018.3 606.3 1061.6C626.2 1104.9 649.2 1152.5 672.2 1200H0V527.8Z" fill="#187044"/>
<path d="M0 662.3C33.6 690.3 67.1 718.3 109.5 720.3C151.8 722.3 202.9 698.3 233.3 715.5C263.7 732.8 273.3 791.4 301.5 822C329.6 852.6 376.1 855.2 402.6 878.9C429.1 902.6 435.5 947.4 445.5 985.4C455.5 1023.5 469.1 1054.7 485 1089.3C501 1123.9 519.4 1162 537.7 1200H0V662.3Z" fill="#268150"/>
<path d="M0 796.7C25.2 817.7 50.4 838.8 82.1 840.3C113.9 841.7 152.2 823.7 175 836.6C197.8 849.6 205 893.5 226.1 916.5C247.2 939.4 282.1 941.4 302 959.2C321.9 977 326.7 1010.6 334.1 1039.1C341.6 1067.6 351.8 1091 363.8 1117C375.7 1142.9 389.5 1171.5 403.3 1200H0V796.7Z" fill="#2A9D60"/>
<path d="M0 931.1C16.8 945.2 33.6 959.2 54.7 960.2C75.9 961.2 101.5 949.1 116.7 957.8C131.8 966.4 136.7 995.7 150.7 1011C164.8 1026.3 188.1 1027.6 201.3 1039.5C214.6 1051.3 217.8 1073.7 222.8 1092.7C227.8 1111.7 234.5 1127.3 242.5 1144.6C250.5 1162 259.7 1181 268.9 1200H0V931.1Z" fill="#2EB971"/>
<path d="M0 1065.6C8.4 1072.6 16.8 1079.6 27.4 1080.1C38 1080.6 50.7 1074.6 58.3 1078.9C65.9 1083.2 68.3 1097.8 75.4 1105.5C82.4 1113.1 94 1113.8 100.7 1119.7C107.3 1125.7 108.9 1136.9 111.4 1146.4C113.9 1155.9 117.3 1163.7 121.3 1172.3C125.2 1181 129.8 1190.5 134.4 1200H0V1065.6Z" fill="#30C879"/>
</g>
<defs>
<clipPath id="clip0_105_23">
<rect width="1920" height="1200" fill="white"/>
</clipPath>
</defs>
</svg>
