<svg width="1200" height="1920" viewBox="0 0 1200 1920" fill="none" xmlns="http://www.w3.org/2000/svg">
<g clip-path="url(#clip0_105_43)">
<path d="M0 0V1920H1200V0H0Z" fill="#5CFC7C"/>
<path d="M1075.5 0C988.2 62.4 900.8 124.8 891.1 203.4C881.3 281.9 949.1 376.6 954.1 459.5C959.1 542.4 901.4 613.4 840.8 670.5C780.3 727.7 717 770.9 651.5 817C586.1 863.2 518.7 912.3 443 919.9C367.3 927.5 283.5 893.5 208.3 912.5C133.1 931.5 66.5 1003.5 0 1075.5V0H1075.5Z" fill="#55EE75"/>
<path d="M941 0C864.6 54.6 788.2 109.2 779.7 178C771.2 246.7 830.5 329.5 834.9 402C839.2 474.6 788.7 536.7 735.7 586.7C682.8 636.7 627.3 674.5 570.1 714.9C512.9 755.3 453.8 798.3 387.6 804.9C321.4 811.5 248 781.8 182.2 798.5C116.4 815.1 58.2 878.1 0 941V0H941Z" fill="#48D266"/>
<path d="M806.6 0C741.1 46.8 675.6 93.6 668.3 152.5C661 211.4 711.8 282.5 715.6 344.6C719.4 406.8 676 460.1 630.6 502.9C585.2 545.8 537.7 578.1 488.7 612.8C439.6 647.4 389 684.2 332.2 689.9C275.5 695.6 212.6 670.1 156.2 684.4C99.8 698.7 49.9 752.6 0 806.6V0H806.6Z" fill="#3BB758"/>
<path d="M672.2 -6.10352e-05C617.6 38.9999 563 77.9999 556.9 127.1C550.8 176.2 593.2 235.4 596.3 287.2C599.5 339 563.4 383.4 525.5 419.1C487.7 454.8 448.1 481.8 407.2 510.6C366.3 539.5 324.2 570.2 276.9 574.9C229.6 579.7 177.2 558.5 130.2 570.3C83.2 582.2 41.6 627.2 0 672.2V-6.10352e-05H672.2Z" fill="#2F9C4B"/>
<path d="M537.7 -6.10352e-05C494.1 31.1999 450.4 62.4 445.5 101.7C440.7 141 474.6 188.3 477.1 229.7C479.6 271.2 450.7 306.7 420.4 335.3C390.1 363.8 358.5 385.4 325.8 408.5C293.1 431.6 259.3 456.2 221.5 459.9C183.7 463.7 141.7 446.8 104.1 456.3C66.5 465.8 33.3 501.8 0 537.7V-6.10352e-05H537.7Z" fill="#23823D"/>
<path d="M403.3 6.10352e-05C370.6 23.4001 337.8 46.8 334.2 76.3C330.5 105.7 355.9 141.2 357.8 172.3C359.7 203.4 338 230 315.3 251.5C292.6 272.9 268.9 289.1 244.3 306.4C219.8 323.7 194.5 342.1 166.1 345C137.7 347.8 106.3 335.1 78.1 342.2C49.9 349.3 25 376.3 0 403.3V6.10352e-05H403.3Z" fill="#186930"/>
<path d="M268.9 -9.15527e-05C247 15.5999 225.2 31.1999 222.8 50.7999C220.3 70.4999 237.3 94.1999 238.5 114.9C239.8 135.6 225.3 153.4 210.2 167.6C195.1 181.9 179.2 192.7 162.9 204.3C146.5 215.8 129.7 228.1 110.7 230C91.8 231.9 70.9 223.4 52.1 228.1C33.3 232.9 16.6 250.9 0 268.9V-9.15527e-05H268.9Z" fill="#0E5223"/>
<path d="M134.4 -9.15527e-05C123.5 7.79991 112.6 15.5999 111.4 25.3999C110.2 35.1999 118.6 47.0999 119.3 57.3999C119.9 67.7999 112.7 76.6999 105.1 83.7999C97.5 90.9999 89.6 96.3999 81.4 102.1C73.3 107.9 64.8 114 55.4 115C45.9 115.9 35.4 111.7 26 114.1C16.6 116.4 8.3 125.4 0 134.4V-9.15527e-05H134.4Z" fill="#09461D"/>
<path d="M124.5 1920C180.6 1852.9 236.7 1785.7 240.7 1701C244.6 1616.4 196.5 1514.1 231 1453.4C265.6 1392.6 382.8 1373.3 444 1317.1C505.2 1260.9 510.4 1167.7 557.8 1114.7C605.2 1061.7 694.9 1048.9 770.9 1028.9C846.9 1009 909.3 981.9 978.6 949.9C1047.8 918 1123.9 881.3 1200 844.5V1920H124.5Z" fill="#55EE75"/>
<path d="M259 1920C308 1861.3 357.1 1802.5 360.6 1728.4C364.1 1654.3 321.9 1564.9 352.2 1511.7C382.4 1458.5 484.9 1441.6 538.5 1392.4C592 1343.3 596.6 1261.7 638.1 1215.4C679.6 1169 758 1157.8 824.5 1140.3C891.1 1122.9 945.7 1099.1 1006.3 1071.2C1066.9 1043.3 1133.4 1011.1 1200 979V1920H259Z" fill="#48D266"/>
<path d="M393.4 1920C435.5 1869.6 477.5 1819.3 480.5 1755.8C483.5 1692.3 447.4 1615.6 473.3 1570C499.2 1524.5 587.1 1510 633 1467.8C678.9 1425.6 682.8 1355.8 718.4 1316C753.9 1276.3 821.1 1266.7 878.2 1251.7C935.2 1236.7 982 1216.4 1033.9 1192.5C1085.9 1168.5 1142.9 1141 1200 1113.4V1920H393.4Z" fill="#3BB758"/>
<path d="M527.8 1920C562.9 1878 597.9 1836.1 600.4 1783.1C602.9 1730.2 572.8 1666.3 594.4 1628.4C616 1590.4 689.2 1578.3 727.5 1543.2C765.7 1508 769 1449.8 798.6 1416.7C828.3 1383.6 884.3 1375.6 931.8 1363.1C979.3 1350.6 1018.3 1333.7 1061.6 1313.7C1104.9 1293.8 1152.5 1270.8 1200 1247.8V1920H527.8Z" fill="#2F9C4B"/>
<path d="M662.3 1920C690.3 1886.4 718.3 1852.9 720.3 1810.5C722.3 1768.2 698.3 1717.1 715.5 1686.7C732.8 1656.3 791.4 1646.7 822 1618.5C852.6 1590.4 855.2 1543.9 878.9 1517.4C902.6 1490.9 947.4 1484.5 985.4 1474.5C1023.5 1464.5 1054.7 1450.9 1089.3 1435C1123.9 1419 1162 1400.6 1200 1382.3V1920H662.3Z" fill="#23823D"/>
<path d="M796.7 1920C817.7 1894.8 838.8 1869.6 840.3 1837.9C841.7 1806.1 823.7 1767.8 836.6 1745C849.6 1722.2 893.5 1715 916.5 1693.9C939.4 1672.8 941.4 1637.9 959.2 1618C977 1598.1 1010.6 1593.3 1039.1 1585.9C1067.6 1578.4 1091 1568.2 1117 1556.2C1142.9 1544.3 1171.5 1530.5 1200 1516.7V1920H796.7Z" fill="#186930"/>
<path d="M931.1 1920C945.2 1903.2 959.2 1886.4 960.2 1865.3C961.2 1844.1 949.1 1818.5 957.8 1803.3C966.4 1788.2 995.7 1783.3 1011 1769.3C1026.3 1755.2 1027.6 1731.9 1039.5 1718.7C1051.3 1705.4 1073.7 1702.2 1092.7 1697.2C1111.7 1692.2 1127.3 1685.5 1144.6 1677.5C1162 1669.5 1181 1660.3 1200 1651.1V1920H931.1Z" fill="#0E5223"/>
<path d="M1065.6 1920C1072.6 1911.6 1079.6 1903.2 1080.1 1892.6C1080.6 1882 1074.6 1869.3 1078.9 1861.7C1083.2 1854.1 1097.8 1851.7 1105.5 1844.6C1113.1 1837.6 1113.8 1826 1119.7 1819.3C1125.7 1812.7 1136.9 1811.1 1146.4 1808.6C1155.9 1806.1 1163.7 1802.7 1172.3 1798.7C1181 1794.8 1190.5 1790.2 1200 1785.6V1920H1065.6Z" fill="#09461D"/>
</g>
<defs>
<clipPath id="clip0_105_43">
<rect width="1920" height="1200" fill="white" transform="matrix(0 -1 1 0 0 1920)"/>
</clipPath>
</defs>
</svg>
